<svg width="200" height="200" xmlns="http://www.w3.org/2000/svg">
  <!-- Background -->
  <rect width="100%" height="100%" fill="#b0d1e8"/>

  <!-- Sea -->
  <path d="M0,120 Q50,100 100,120 T200,120 V200 H0 Z" fill="#4a6e5f"/>

  <!-- Waves -->
  <path d="M0,120 Q30,110 60,120 T120,120 T180,120 T200,120 V140 H0 Z" fill="#2c3e3a" opacity="0.8"/>
  <path d="M0,140 Q20,130 40,140 T80,140 T120,140 T160,140 T200,140 V160 H0 Z" fill="#4a6e5f" opacity="0.7"/>
  <path d="M0,160 Q30,150 60,160 T120,160 T180,160 T200,160 V180 H0 Z" fill="#2c3e3a" opacity="0.6"/>
  <path d="M0,180 Q40,170 80,180 T160,180 T200,180 V200 H0 Z" fill="#4a6e5f" opacity="0.5"/>
</svg>